<?xml version="1.0" encoding="UTF-8"?>
<svg version="1.1" xmlns="http://www.w3.org/2000/svg" width="73" height="53">
<path d="M0 0 C4.65115124 3.28983868 7.8292932 6.2977511 9.5625 11.8125 C11.356875 11.68875 11.356875 11.68875 13.1875 11.5625 C17.68510039 11.57046035 20.11141166 12.84295887 23.5625 15.8125 C26.94881676 19.65032566 27.07199328 23.44621494 26.91796875 28.375 C26.26410803 32.85861638 23.85792176 35.47081317 20.8125 38.625 C17.46061405 40.39405092 14.32892498 40.49863125 10.5625 40.8125 C10.8925 40.07 11.2225 39.3275 11.5625 38.5625 C12.79032871 35.67366688 12.79032871 35.67366688 12.5625 31.8125 C10.2525 31.1525 7.9425 30.4925 5.5625 29.8125 C5.0675 24.3675 5.0675 24.3675 4.5625 18.8125 C2.9125 18.4825 1.2625 18.1525 -0.4375 17.8125 C-0.95135254 18.50025513 -0.95135254 18.50025513 -1.47558594 19.2019043 C-3.04536124 21.301916 -4.61642009 23.40096416 -6.1875 25.5 C-6.72632812 26.22123047 -7.26515625 26.94246094 -7.8203125 27.68554688 C-10.63482265 31.44394762 -13.47573659 35.16780571 -16.4375 38.8125 C-20.67984863 38.32327907 -22.42011025 37.27625972 -25.125 34 C-25.70636719 33.31292969 -26.28773437 32.62585937 -26.88671875 31.91796875 C-31.15199452 26.12707798 -31.14430564 20.8624332 -30.4375 13.8125 C-28.67650316 7.10287914 -24.26782378 3.27238413 -18.4375 -0.1875 C-12.55731742 -2.14756086 -5.83479157 -2.01565527 0 0 Z " fill="#8EE34C" transform="translate(46.4375,1.1875)"/>
<path d="M0 0 C0.66 0 1.32 0 2 0 C2 3.96 2 7.92 2 12 C4.31 12 6.62 12 9 12 C7.25907899 15.99620504 4.63974503 19.31833146 2 22.75 C1.54882812 23.35199219 1.09765625 23.95398438 0.6328125 24.57421875 C-0.52822502 26.08906356 -1.75927939 27.54969821 -3 29 C-3.66 29 -4.32 29 -5 29 C-5 25.37 -5 21.74 -5 18 C-7.31 18 -9.62 18 -12 18 C-10.46653414 13.37346379 -7.95900925 9.97925899 -5 6.1875 C-4.54882812 5.59001953 -4.09765625 4.99253906 -3.6328125 4.37695312 C-2.47362397 2.87652419 -1.24186081 1.43275496 0 0 Z " fill="#B9E84A" transform="translate(46,24)"/>
<path d="M0 0 C3.3 0 6.6 0 10 0 C9.48386345 4.47587166 7.85147631 6.87545266 5 10.3125 C4.278125 11.19550781 3.55625 12.07851563 2.8125 12.98828125 C1.9153125 13.98408203 1.9153125 13.98408203 1 15 C0.67 15 0.34 15 0 15 C-0.36630156 11.06225823 -0.30233203 9.43460229 2 6.125 C2.66 5.42375 3.32 4.7225 4 4 C2.68 3.67 1.36 3.34 0 3 C0 2.01 0 1.02 0 0 Z " fill="#FFFFFF" transform="translate(0,16)"/>
<path d="M0 0 C3.3 0 6.6 0 10 0 C10 0.99 10 1.98 10 3 C6.7 3 3.4 3 0 3 C0 2.01 0 1.02 0 0 Z " fill="#FFFFFF" transform="translate(0,34)"/>
</svg>
